<mxfile host="65bd71144e">
    <diagram id="HAmizyquJq_pE2YEvU7m" name="Page-1">
        <mxGraphModel dx="972" dy="670" grid="1" gridSize="10" guides="1" tooltips="1" connect="1" arrows="1" fold="1" page="1" pageScale="1" pageWidth="827" pageHeight="1169" background="none" math="0" shadow="0">
            <root>
                <mxCell id="0"/>
                <mxCell id="1" parent="0"/>
                <mxCell id="2" value="Saved Variables" style="rounded=0;whiteSpace=wrap;html=1;" parent="1" vertex="1">
                    <mxGeometry x="40" y="80" width="170" height="30" as="geometry"/>
                </mxCell>
                <mxCell id="28" style="edgeStyle=none;html=1;exitX=0.5;exitY=1;exitDx=0;exitDy=0;" parent="1" source="3" edge="1">
                    <mxGeometry relative="1" as="geometry">
                        <mxPoint x="170" y="560" as="targetPoint"/>
                    </mxGeometry>
                </mxCell>
                <mxCell id="31" style="edgeStyle=none;html=1;exitX=0.75;exitY=1;exitDx=0;exitDy=0;entryX=0.087;entryY=0.01;entryDx=0;entryDy=0;entryPerimeter=0;" parent="1" source="3" target="4" edge="1">
                    <mxGeometry relative="1" as="geometry"/>
                </mxCell>
                <mxCell id="3" value="AnchorFrames" style="rounded=0;whiteSpace=wrap;html=1;" parent="1" vertex="1">
                    <mxGeometry x="80" y="160" width="180" height="30" as="geometry"/>
                </mxCell>
                <mxCell id="11" style="edgeStyle=none;html=1;exitX=0.25;exitY=1;exitDx=0;exitDy=0;entryX=0;entryY=1;entryDx=0;entryDy=0;" parent="1" source="4" target="9" edge="1">
                    <mxGeometry relative="1" as="geometry">
                        <mxPoint x="245" y="470" as="targetPoint"/>
                        <Array as="points">
                            <mxPoint x="245" y="450"/>
                        </Array>
                    </mxGeometry>
                </mxCell>
                <mxCell id="4" value="FrameName" style="rounded=0;whiteSpace=wrap;html=1;" parent="1" vertex="1">
                    <mxGeometry x="200" y="220" width="180" height="30" as="geometry"/>
                </mxCell>
                <mxCell id="5" value="Anchor Point" style="rounded=0;whiteSpace=wrap;html=1;" parent="1" vertex="1">
                    <mxGeometry x="500" y="410" width="180" height="30" as="geometry"/>
                </mxCell>
                <mxCell id="6" value="X Coords" style="rounded=0;whiteSpace=wrap;html=1;" parent="1" vertex="1">
                    <mxGeometry x="500" y="450" width="180" height="30" as="geometry"/>
                </mxCell>
                <mxCell id="7" value="Y Coords" style="rounded=0;whiteSpace=wrap;html=1;" parent="1" vertex="1">
                    <mxGeometry x="500" y="490" width="180" height="30" as="geometry"/>
                </mxCell>
                <mxCell id="8" value="Frame Scale" style="rounded=0;whiteSpace=wrap;html=1;" parent="1" vertex="1">
                    <mxGeometry x="500" y="530" width="180" height="30" as="geometry"/>
                </mxCell>
                <mxCell id="9" value="Can Frame be moved" style="rounded=0;whiteSpace=wrap;html=1;" parent="1" vertex="1">
                    <mxGeometry x="500" y="570" width="180" height="30" as="geometry"/>
                </mxCell>
                <mxCell id="29" style="edgeStyle=none;html=1;entryX=0.5;entryY=0;entryDx=0;entryDy=0;" parent="1" source="16" target="21" edge="1">
                    <mxGeometry relative="1" as="geometry"/>
                </mxCell>
                <mxCell id="30" style="edgeStyle=none;html=1;exitX=0.75;exitY=1;exitDx=0;exitDy=0;entryX=0.08;entryY=0.04;entryDx=0;entryDy=0;entryPerimeter=0;" parent="1" source="16" target="17" edge="1">
                    <mxGeometry relative="1" as="geometry"/>
                </mxCell>
                <mxCell id="16" value="Options Frame" style="rounded=0;whiteSpace=wrap;html=1;" parent="1" vertex="1">
                    <mxGeometry x="80" y="570" width="180" height="30" as="geometry"/>
                </mxCell>
                <mxCell id="17" value="Anchor Point" style="rounded=0;whiteSpace=wrap;html=1;" parent="1" vertex="1">
                    <mxGeometry x="200" y="630" width="180" height="30" as="geometry"/>
                </mxCell>
                <mxCell id="18" value="X Coords" style="rounded=0;whiteSpace=wrap;html=1;" parent="1" vertex="1">
                    <mxGeometry x="200" y="670" width="180" height="30" as="geometry"/>
                </mxCell>
                <mxCell id="19" value="Y Coords" style="rounded=0;whiteSpace=wrap;html=1;" parent="1" vertex="1">
                    <mxGeometry x="200" y="710" width="180" height="30" as="geometry"/>
                </mxCell>
                <mxCell id="21" value="Global" style="rounded=0;whiteSpace=wrap;html=1;" parent="1" vertex="1">
                    <mxGeometry x="80" y="780" width="180" height="30" as="geometry"/>
                </mxCell>
                <mxCell id="22" value="Anchor Frames" style="rounded=0;whiteSpace=wrap;html=1;" parent="1" vertex="1">
                    <mxGeometry x="200" y="830" width="180" height="30" as="geometry"/>
                </mxCell>
                <mxCell id="23" value="Visible" style="rounded=0;whiteSpace=wrap;html=1;" parent="1" vertex="1">
                    <mxGeometry x="270" y="880" width="180" height="30" as="geometry"/>
                </mxCell>
                <mxCell id="24" value="Locked" style="rounded=0;whiteSpace=wrap;html=1;" parent="1" vertex="1">
                    <mxGeometry x="270" y="920" width="180" height="30" as="geometry"/>
                </mxCell>
                <mxCell id="25" value="Options Frame" style="rounded=0;whiteSpace=wrap;html=1;" parent="1" vertex="1">
                    <mxGeometry x="200" y="970" width="180" height="30" as="geometry"/>
                </mxCell>
                <mxCell id="26" value="Visible" style="rounded=0;whiteSpace=wrap;html=1;" parent="1" vertex="1">
                    <mxGeometry x="270" y="1020" width="180" height="30" as="geometry"/>
                </mxCell>
                <mxCell id="27" value="Locked" style="rounded=0;whiteSpace=wrap;html=1;" parent="1" vertex="1">
                    <mxGeometry x="270" y="1060" width="180" height="30" as="geometry"/>
                </mxCell>
                <mxCell id="33" value="" style="shape=curlyBracket;whiteSpace=wrap;html=1;rounded=1;labelPosition=left;verticalLabelPosition=middle;align=right;verticalAlign=middle;" vertex="1" parent="1">
                    <mxGeometry x="394" y="175" width="20" height="120" as="geometry"/>
                </mxCell>
                <mxCell id="37" value="&lt;ul&gt;&lt;li&gt;Anchor Point&lt;/li&gt;&lt;li&gt;X Coords&lt;/li&gt;&lt;li&gt;Y Coords&lt;/li&gt;&lt;li&gt;Frame Scale&lt;/li&gt;&lt;li&gt;Can Frame be Moved&lt;/li&gt;&lt;/ul&gt;" style="text;strokeColor=none;fillColor=none;html=1;whiteSpace=wrap;verticalAlign=middle;overflow=hidden;" vertex="1" parent="1">
                    <mxGeometry x="410" y="175" width="170" height="120" as="geometry"/>
                </mxCell>
            </root>
        </mxGraphModel>
    </diagram>
</mxfile>